<svg width="40" height="40" viewBox="0 0 40 40" fill="none" xmlns="http://www.w3.org/2000/svg">
<path fill-rule="evenodd" clip-rule="evenodd" d="M20 0C8.95427 0 0 8.95427 0 20C0 31.0457 8.95427 40 20 40C31.0457 40 40 31.0457 40 20C40 8.95427 31.0457 0 20 0ZM15.6027 9.3978C16.7403 9.346 17.1035 9.33333 19.9977 9.33333C22.8955 9.33333 23.2577 9.346 24.3955 9.3978C25.5311 9.44973 26.3067 9.62953 26.9867 9.8934C27.6888 10.1655 28.2822 10.5299 28.8755 11.1234C29.4689 11.7163 29.8333 12.3113 30.1066 13.0129C30.3688 13.6911 30.5488 14.4663 30.6022 15.6019C30.6533 16.7396 30.6667 17.1032 30.6667 20.0001C30.6667 22.897 30.6533 23.2597 30.6022 24.3975C30.5488 25.5325 30.3688 26.3079 30.1066 26.9863C29.8333 27.6878 29.4689 28.2829 28.8755 28.8758C28.2829 29.4691 27.6887 29.8345 26.9873 30.1069C26.3086 30.3706 25.5325 30.5505 24.397 30.6024C23.2593 30.6543 22.8968 30.6668 19.9997 30.6668C17.103 30.6668 16.7396 30.6543 15.6019 30.6024C14.4665 30.5505 13.6911 30.3706 13.0125 30.1069C12.3113 29.8345 11.7163 29.4691 11.1235 28.8758C10.5305 28.2829 10.166 27.6878 9.8934 26.9861C9.62973 26.3079 9.45 25.5329 9.3978 24.3973C9.3462 23.2595 9.33333 22.897 9.33333 20.0001C9.33333 17.1032 9.34667 16.7394 9.3976 15.6015C9.44873 14.4665 9.62873 13.6911 9.89307 13.0127C10.1665 12.3113 10.5309 11.7163 11.1242 11.1234C11.7171 10.5303 12.3122 10.1659 13.0139 9.8934C13.6921 9.62953 14.4671 9.44973 15.6027 9.3978Z" fill="url(#paint0_linear)"/>
<path fill-rule="evenodd" clip-rule="evenodd" d="M19.0444 11.2556H19.6458H20.0013C22.8494 11.2556 23.187 11.2659 24.3116 11.3169C25.3517 11.3645 25.9162 11.5383 26.2921 11.6843C26.7898 11.8777 27.1448 12.1088 27.5179 12.4821C27.8912 12.8555 28.1224 13.211 28.316 13.7087C28.462 14.0844 28.636 14.6488 28.6834 15.6889C28.7345 16.8132 28.7456 17.1511 28.7456 19.9978C28.7456 22.8445 28.7345 23.1822 28.6834 24.3067C28.6359 25.3467 28.462 25.9112 28.316 26.2867C28.1227 26.7846 27.8912 27.1389 27.5179 27.5121C27.1445 27.8853 26.79 28.1165 26.2921 28.3098C25.9165 28.4565 25.3517 28.6298 24.3116 28.6775C23.1872 28.7286 22.8494 28.7397 20.0013 28.7397C17.1531 28.7397 16.8156 28.7286 15.691 28.6775C14.651 28.6295 14.0866 28.4556 13.7104 28.3097C13.2126 28.1163 12.8571 27.8851 12.4837 27.5118C12.1103 27.1386 11.8792 26.7837 11.6855 26.2859C11.5395 25.9102 11.3656 25.3458 11.3182 24.3057C11.267 23.1814 11.2568 22.8435 11.2568 19.995C11.2568 17.1465 11.267 16.8106 11.3182 15.6861C11.3657 14.6461 11.5395 14.0818 11.6855 13.7056C11.8789 13.2079 12.1103 12.8523 12.4837 12.4791C12.8571 12.1057 13.2126 11.8746 13.7104 11.6807C14.0864 11.5341 14.651 11.3607 15.691 11.3131C16.6751 11.2686 17.0564 11.2553 19.0444 11.253V11.2556ZM25.6951 13.0267C24.9886 13.0267 24.4152 13.5993 24.4152 14.3062C24.4152 15.0129 24.9886 15.5863 25.6951 15.5863C26.4018 15.5863 26.9752 15.0129 26.9752 14.3062C26.9752 13.5997 26.4018 13.0263 25.6951 13.0267ZM14.5236 20.0002C14.5236 16.975 16.9762 14.5223 20.0014 14.5223C23.0264 14.5223 25.4783 16.975 25.4783 20.0002C25.4783 23.0253 23.0265 25.4769 20.0014 25.4769C16.9762 25.4769 14.5236 23.0253 14.5236 20.0002Z" fill="url(#paint1_linear)"/>
<path fill-rule="evenodd" clip-rule="evenodd" d="M20.0009 16.4444C21.9645 16.4444 23.5565 18.0362 23.5565 20C23.5565 21.9636 21.9645 23.5556 20.0009 23.5556C18.0371 23.5556 16.4453 21.9636 16.4453 20C16.4453 18.0362 18.0371 16.4444 20.0009 16.4444Z" fill="white"/>
<defs>
<linearGradient id="paint0_linear" x1="17.1429" y1="-1.71097e-07" x2="18.4557" y2="43.0123" gradientUnits="userSpaceOnUse">
<stop stop-color="#113389"/>
<stop offset="0.295537" stop-color="#C1558B"/>
<stop offset="0.515372" stop-color="#E56969"/>
<stop offset="0.853673" stop-color="#FFC273"/>
<stop offset="1" stop-color="#FFDF9E"/>
<stop offset="1" stop-color="#FFDF9E"/>
</linearGradient>
<linearGradient id="paint1_linear" x1="18.752" y1="11.253" x2="19.3259" y2="30.0565" gradientUnits="userSpaceOnUse">
<stop stop-color="#113389"/>
<stop offset="0.295537" stop-color="#C1558B"/>
<stop offset="0.515372" stop-color="#E56969"/>
<stop offset="0.853673" stop-color="#FFC273"/>
<stop offset="1" stop-color="#FFDF9E"/>
<stop offset="1" stop-color="#FFDF9E"/>
</linearGradient>
</defs>
</svg>
