<svg width="40" height="40" viewBox="0 0 40 40" fill="none" xmlns="http://www.w3.org/2000/svg">
<path fill-rule="evenodd" clip-rule="evenodd" d="M20 0C8.95427 0 0 8.95427 0 20C0 31.0457 8.95427 40 20 40C31.0457 40 40 31.0457 40 20C40 8.95427 31.0457 0 20 0ZM28.3347 13.1244C29.2526 13.3763 29.9756 14.1185 30.2209 15.0611C30.6667 16.7692 30.6667 20.3333 30.6667 20.3333C30.6667 20.3333 30.6667 23.8974 30.2209 25.6056C29.9756 26.5482 29.2526 27.2903 28.3347 27.5423C26.6712 28 20 28 20 28C20 28 13.3288 28 11.6652 27.5423C10.7472 27.2903 10.0244 26.5482 9.779 25.6056C9.33333 23.8974 9.33333 20.3333 9.33333 20.3333C9.33333 20.3333 9.33333 16.7692 9.779 15.0611C10.0244 14.1185 10.7472 13.3763 11.6652 13.1244C13.3288 12.6667 20 12.6667 20 12.6667C20 12.6667 26.6712 12.6667 28.3347 13.1244Z" fill="#FF0000"/>
<path fill-rule="evenodd" clip-rule="evenodd" d="M18 24V17.3333L23.3333 20.6668L18 24Z" fill="#FF0000"/>
</svg>
