<svg width="171" height="95" viewBox="0 0 171 95" fill="none" xmlns="http://www.w3.org/2000/svg">
<path d="M33.7725 54.6888L39.0092 27.2278H46.9983L38.3683 65.8215H30.299L23.9667 40.0038L17.6343 65.8215H9.56529L0.93512 27.2278H8.92404L14.1876 54.6355L20.6001 27.2278H27.3867L33.7725 54.6888ZM83.3091 47.3993C83.3091 51.1986 82.6323 54.5297 81.2783 57.3922C79.9247 60.2551 77.9832 62.4639 75.4537 64.0192C72.9421 65.5741 70.0566 66.3518 66.7967 66.3518C63.5726 66.3518 60.6961 65.5829 58.1666 64.0456C55.6372 62.5083 53.6779 60.3169 52.2887 57.472C50.8991 54.6091 50.1956 51.3224 50.1779 47.6113V45.7028C50.1779 41.9035 50.8636 38.5639 52.235 35.6834C53.6245 32.7854 55.575 30.5676 58.0866 29.0302C60.616 27.4752 63.5015 26.6976 66.7433 26.6976C69.9851 26.6976 72.862 27.4752 75.3737 29.0302C77.9028 30.5676 79.8536 32.7854 81.225 35.6834C82.6142 38.5639 83.3091 41.8947 83.3091 45.6764V47.3993ZM75.1866 45.6499C75.1866 41.6032 74.4561 38.5286 72.9958 36.4257C71.5351 34.3228 69.4509 33.2713 66.7433 33.2713C64.0538 33.2713 61.9786 34.314 60.5179 36.3989C59.0572 38.4665 58.3181 41.5062 58.3004 45.5172V47.3993C58.3004 51.3401 59.0305 54.397 60.4912 56.5708C61.9519 58.7443 64.0538 59.831 66.7967 59.831C69.4865 59.831 71.5529 58.7884 72.9958 56.7031C74.4383 54.6003 75.1688 51.5433 75.1866 47.5319V45.6499ZM121.089 47.3993C121.089 51.1986 120.412 54.5297 119.059 57.3922C117.705 60.2551 115.764 62.4639 113.234 64.0192C110.722 65.5741 107.837 66.3518 104.577 66.3518C101.353 66.3518 98.4765 65.5829 95.9471 64.0456C93.4176 62.5083 91.4583 60.3169 90.0687 57.472C88.6795 54.6091 87.9761 51.3224 87.9583 47.6113V45.7028C87.9583 41.9035 88.644 38.5639 90.0154 35.6834C91.4049 32.7854 93.3554 30.5676 95.8667 29.0302C98.3961 27.4752 101.282 26.6976 104.524 26.6976C107.766 26.6976 110.642 27.4752 113.154 29.0302C115.683 30.5676 117.634 32.7854 119.005 35.6834C120.395 38.5639 121.089 41.8947 121.089 45.6764V47.3993ZM112.967 45.6499C112.967 41.6032 112.237 38.5286 110.776 36.4257C109.315 34.3228 107.231 33.2713 104.524 33.2713C101.834 33.2713 99.759 34.314 98.2983 36.3989C96.8376 38.4665 96.0985 41.5062 96.0808 45.5172V47.3993C96.0808 51.3401 96.8109 54.397 98.2716 56.5708C99.7323 58.7443 101.834 59.831 104.577 59.831C107.267 59.831 109.333 58.7884 110.776 56.7031C112.219 54.6003 112.949 51.5433 112.967 47.5319V45.6499Z" fill="#050505"/>
<path d="M137.228 38.2755L131.991 65.7366H124.002L132.632 27.1429H140.701L147.033 52.9605L153.366 27.1429H161.435L170.065 65.7366H162.076L156.813 38.3288L150.4 65.7366H143.613L137.228 38.2755Z" fill="#050505"/>
</svg>
